# Blender 4.5.3 LTS
# www.blender.org
o Cube.003
v -0.915728 0.977126 -1.672620
v -0.133451 1.144760 -1.796342
v -0.861001 1.143815 -1.758899
v -0.812597 0.939036 -1.768477
v -0.126480 0.944240 -1.780233
v -0.112843 1.137841 -1.271591
v -0.110297 0.944668 -1.288064
v -0.904275 1.001701 -1.335192
v -0.713986 1.057775 -1.825258
v -0.017587 1.055106 -1.375412
v -0.001497 1.046059 -1.660603
v -0.851245 1.135438 -1.286790
v -0.762397 0.944045 -1.266304
v -0.615434 1.168443 -1.376687
v 0.072788 0.944351 -1.304689
v 0.838815 0.949950 -1.791217
v 0.075189 1.142024 -1.760489
v 0.086769 0.944694 -1.766005
v 0.135701 1.150041 -1.272754
v 0.011511 1.093196 -1.473227
v 0.200381 1.076270 -1.817331
v 0.803698 1.146544 -1.790288
v 0.926501 1.079843 -1.672722
v 0.911836 1.103144 -1.388214
v 0.898643 0.983140 -1.352232
v 0.785491 0.946011 -1.269265
v 0.805099 1.143566 -1.276884
v -0.994499 0.124128 1.938861
v -0.927940 0.136184 -1.999088
v -0.999429 0.518211 1.999205
v 0.998935 0.520230 1.915594
v 0.958747 0.121358 1.990110
v 0.998336 0.123085 -1.933617
v 0.915846 0.505155 1.999704
v -0.928123 0.137381 1.999218
v -0.995570 0.519610 -1.911568
v -0.998198 0.121552 -1.934211
v 0.999758 0.136130 1.856080
v -0.923356 0.504410 -1.999531
v 0.981362 0.519466 -1.999567
v 0.927837 0.137136 -1.999136
v -0.839494 0.528290 -1.774202
v 0.904997 0.857515 1.831919
v 0.797447 0.558285 1.935443
v -0.868129 0.914301 -1.687675
v 0.861350 0.916367 1.667896
v -0.529491 0.616209 1.997915
v 0.816460 0.525554 -1.637035
v 0.994536 0.864020 -1.353299
v 0.631474 0.849049 -1.993184
v -0.942431 0.549477 1.730881
v -0.858785 0.882897 1.895085
v -0.939533 0.866018 -1.754965
v -0.850817 0.913815 1.699501
v 0.834368 0.914854 -1.760165
v 0.806927 0.879866 1.929375
v 0.583465 0.606983 1.996002
v 0.629781 0.848647 1.993623
v -0.631593 0.848712 1.993218
v -0.725943 0.569232 1.963638
v 0.923918 0.548390 1.786592
v -0.839148 0.595007 1.915765
v -0.959963 0.880822 1.659889
v -0.997140 0.851783 1.160967
v -0.993242 0.591436 1.461214
v -0.997895 0.602759 -1.165566
v -0.964540 0.561764 -1.638869
v -0.994577 0.865483 -1.263399
v -0.744158 0.524037 1.623667
v 0.714058 0.522124 1.426970
v 0.921922 0.868315 -1.802295
v 0.996940 0.596888 -1.259978
v 0.995172 0.854350 1.296237
v 0.995196 0.588986 1.358052
v 0.957774 0.888772 1.638440
v 0.947071 0.555455 -1.719231
v -0.861575 0.592113 -1.898697
v -0.628538 0.593284 -1.993808
v -0.629698 0.841612 -1.994444
v 0.533702 0.615248 -1.997497
v 0.725943 0.569232 -1.963638
v 0.811650 0.858772 -1.930965
v -0.830873 0.881783 -1.916525
v 0.840169 0.594533 -1.914504
v 1.323077 0.002717 -2.262432
v -1.326710 0.003363 2.250605
v 1.289983 0.435143 2.306183
v 1.328928 0.017712 2.246818
v -1.330514 0.430906 -2.209910
v 1.100000 0.440854 -2.121100
v -1.100000 0.440804 -2.121101
v 1.100008 0.441339 2.115330
v -1.100000 0.120922 2.115320
v -1.236084 0.019038 2.325953
v -1.222840 0.416626 2.326941
v -1.329897 0.435669 2.231624
v -1.100000 0.120922 -2.121101
v -1.324708 0.001941 -2.260728
v 1.330222 0.437965 -2.234753
v 1.100000 0.120922 2.115320
v 1.330562 0.424083 2.159247
v -1.233975 0.416142 -2.332723
v -1.234499 0.024538 -2.332386
v 1.100000 0.120922 -2.121101
v 1.235363 0.018771 -2.331967
v 1.233377 0.423328 -2.332549
v 1.233379 0.001458 2.326769
v -1.100000 0.440712 2.115320
v 0.055153 0.915404 0.103695
v 0.838186 0.915068 -1.275111
vn -0.9425 -0.3298 -0.0540
vn -0.3301 0.9154 -0.2304
vn -0.0628 -0.9859 -0.1548
vn -0.9828 -0.0398 0.1806
vn -0.9425 -0.3297 -0.0542
vn -0.0949 -0.8185 0.5667
vn 0.1367 0.9373 -0.3205
vn 0.9898 0.0336 -0.1385
vn 0.1667 -0.8801 -0.4446
vn 0.2008 0.7901 0.5791
vn 0.1379 -0.9722 0.1894
vn 0.9606 -0.0110 0.2776
vn 0.9898 0.0335 -0.1386
vn 0.1666 -0.8801 -0.4446
vn -0.0628 -0.9860 -0.1548
vn 0.1379 -0.9722 0.1893
vn -0.3300 0.9154 -0.2304
vn -0.4472 0.6947 0.5634
vn -0.0021 0.9999 0.0154
vn -0.0020 0.9999 0.0154
vn 0.2007 0.7901 0.5791
vn -0.1419 -0.9679 0.2074
vn -0.9914 0.1219 0.0476
vn -0.1672 -0.9707 -0.1727
vn -0.9914 0.1218 0.0476
vn -0.2144 0.9575 -0.1928
vn -0.1673 -0.9707 -0.1726
vn -0.0883 0.9237 0.3729
vn -0.9914 0.1219 0.0477
vn -0.2145 0.9575 -0.1928
vn 0.0812 0.9702 -0.2281
vn -0.0372 0.0119 -0.9992
vn 0.9797 0.0462 -0.1951
vn 0.7101 0.6961 0.1057
vn 0.8268 -0.5250 0.2019
vn 0.1269 0.9150 0.3829
vn 0.8268 -0.5250 0.2018
vn 0.1270 0.9150 0.3829
vn 0.0380 -0.9347 0.3534
vn 0.1150 -0.9526 -0.2817
vn 0.0381 -0.9347 0.3533
vn 0.0811 0.9702 -0.2281
vn -0.0883 0.9237 0.3728
vn -0.2001 0.9797 -0.0103
vn -0.1941 0.9798 0.0490
vn 0.0984 0.9908 -0.0925
vn 0.3576 0.9339 0.0080
vn 0.3576 0.9339 0.0081
vn -0.1941 0.9797 0.0491
vn 0.0242 0.0961 0.9951
vn -0.1986 -0.9801 0.0075
vn -0.0136 -0.0904 0.9958
vn -0.1941 0.9797 0.0490
vn -0.1985 -0.9801 -0.0052
vn -0.1942 0.9797 0.0491
vn 0.3541 -0.9352 -0.0107
vn 0.0089 -0.9987 0.0509
vn -0.0379 -0.1626 -0.9860
vn 0.3577 0.9338 0.0079
vn 0.3541 -0.9351 -0.0106
vn 0.3576 0.9338 0.0080
vn 0.9951 -0.0983 0.0100
vn 0.3576 0.9338 0.0081
vn 0.9951 -0.0984 0.0101
vn 0.3541 -0.9351 -0.0107
vn 0.9951 -0.0984 0.0099
vn -0.0379 -0.1625 -0.9860
vn -0.0743 0.2094 -0.9750
vn 0.0985 0.9908 -0.0925
vn 0.0324 -0.1627 -0.9861
vn 0.0323 -0.1627 -0.9861
vn 0.0430 0.3015 0.9525
vn 0.0337 -0.2668 0.9632
vn 0.0781 -0.9640 0.2540
vn -0.0444 -0.9254 0.3763
vn 0.0430 0.3014 0.9525
vn -0.0120 -0.0489 0.9987
vn 0.0337 -0.2669 0.9631
vn -0.0444 -0.9255 0.3762
vn -0.2507 0.8747 0.4148
vn -0.0988 0.2590 0.9608
vn 0.0431 0.3015 0.9525
vn 0.8308 0.1914 0.5226
vn 0.0181 0.9998 0.0120
vn 0.1109 0.9436 0.3120
vn -0.0377 0.9992 0.0161
vn -0.2507 0.8747 0.4147
vn 0.1108 0.9436 0.3120
vn -0.0445 -0.9254 0.3763
vn -0.5976 -0.0787 0.7979
vn -0.3854 -0.9203 0.0668
vn 0.0781 -0.9641 0.2540
vn -0.0135 -0.9997 0.0182
vn -0.5936 0.8027 0.0579
vn -0.9979 0.0649 0.0070
vn -0.9762 -0.2159 0.0229
vn -0.9979 0.0648 0.0070
vn -0.9982 -0.0593 -0.0055
vn -0.9762 -0.2158 0.0229
vn -0.7215 -0.6895 -0.0632
vn -0.9761 -0.2159 0.0229
vn -0.8183 0.5746 -0.0180
vn -0.8182 0.5746 -0.0180
vn -0.0387 0.9992 -0.0080
vn -0.9456 0.1900 -0.2643
vn -0.9762 -0.2159 0.0230
vn -0.0378 0.9992 0.0161
vn -0.5936 0.8027 0.0580
vn -0.2508 0.8747 0.4147
vn -0.9455 0.1899 -0.2643
vn -0.6698 -0.1911 -0.7176
vn 0.0278 -0.9995 -0.0124
vn 0.0063 -1.0000 0.0042
vn -0.0194 -0.9997 -0.0165
vn -0.0135 -0.9997 0.0181
vn -0.0193 -0.9997 -0.0164
vn 0.0278 -0.9995 -0.0125
vn 0.3814 -0.9214 0.0745
vn 0.0064 -1.0000 0.0042
vn 0.3814 -0.9214 0.0746
vn 0.0781 -0.9641 0.2539
vn -0.3853 -0.9204 0.0668
vn 0.6099 -0.7890 -0.0740
vn 0.9492 0.3141 -0.0198
vn 0.9906 -0.1357 -0.0140
vn 0.9815 -0.1907 0.0172
vn 0.6099 -0.7890 -0.0741
vn 0.9815 -0.1907 0.0173
vn 0.9906 -0.1358 -0.0140
vn 0.1138 0.9909 -0.0720
vn 0.9492 0.3142 -0.0198
vn 0.9180 0.2178 -0.3315
vn 0.5684 0.8215 0.0450
vn 0.0279 -0.9995 -0.0125
vn -0.6698 -0.1911 -0.7175
vn -0.0596 -0.3939 -0.9172
vn -0.0595 -0.3939 -0.9172
vn 0.0539 -0.9294 -0.3652
vn 0.0204 -0.0982 -0.9950
vn 0.0538 -0.9294 -0.3652
vn 0.1138 0.9909 -0.0721
vn 0.4714 0.3062 -0.8270
vn 0.0422 0.4835 -0.8743
vn -0.9455 0.1900 -0.2644
vn -0.0387 0.9992 -0.0081
vn -0.1092 0.9162 -0.3856
vn -0.1091 0.9162 -0.3856
vn 0.1137 0.9909 -0.0721
vn 0.9180 0.2179 -0.3315
vn 0.4714 0.3061 -0.8271
vn 0.4714 0.3062 -0.8271
vn 0.9179 0.2179 -0.3315
vn 0.6487 -0.0953 -0.7551
vn 0.0539 -0.9293 -0.3653
vn 0.6809 0.6411 0.3542
vn -0.5690 0.8212 0.0438
vn 0.6867 0.6334 -0.3567
vn -0.6898 0.6292 0.3581
vn 0.7861 0.6174 -0.0304
vn 0.6808 0.6411 0.3542
vn -0.5690 0.8212 0.0437
vn 0.0818 0.8304 0.5512
vn -0.6737 0.6520 -0.3480
vn -0.9109 0.4107 -0.0408
vn -0.3171 -0.9483 0.0102
vn -0.3300 0.9154 -0.2305
vn -0.9425 -0.3298 -0.0541
vn -0.4472 0.6948 0.5633
vn -0.0836 -0.9965 -0.0073
vn 0.1627 -0.9866 -0.0096
vn 0.0045 -0.9961 0.0883
vn -0.3170 -0.9484 0.0101
vn 0.9928 -0.1191 0.0141
vn 0.9958 0.0916 0.0089
vn 0.0819 0.8304 0.5512
vn 0.9958 0.0917 0.0089
vn 0.7861 0.6174 -0.0303
vn 0.0819 0.8304 0.5511
vn -0.0380 -0.0831 -0.9958
vn -0.0651 0.4525 -0.8894
vn 0.0313 0.2577 -0.9657
vn 0.0234 -0.3046 -0.9522
vn 0.0312 0.2577 -0.9657
vn 0.7861 0.6173 -0.0303
vn 0.1627 -0.9866 -0.0095
vn 0.0312 0.2578 -0.9657
vn 0.1628 -0.9866 -0.0095
vn 0.0235 -0.3046 -0.9522
vn -0.0836 -0.9965 -0.0074
vn 0.1435 0.9868 -0.0745
vn -0.6737 0.6519 -0.3480
vn -0.1437 0.9868 -0.0746
vn 0.1434 0.9869 -0.0745
vn -0.6736 0.6520 -0.3479
vn -0.1436 0.9868 0.0745
vn -0.6736 0.6520 -0.3480
vn -0.6897 0.6293 0.3581
vn -0.6737 0.6520 -0.3479
vn -0.6897 0.6293 0.3582
vn -0.1419 -0.9679 0.2073
vn -0.1672 -0.9707 -0.1726
vn 0.1149 -0.9526 -0.2818
vn 0.0380 -0.9348 0.3533
vn -0.0347 -0.0209 -0.9992
vn 0.1367 0.9373 -0.3206
vn 0.1667 -0.8800 -0.4447
vn -0.0627 -0.9860 -0.1548
vn 0.9898 0.0335 -0.1385
vn 0.1366 0.9373 -0.3205
vn 0.2008 0.7901 0.5792
vn 0.1378 -0.9722 0.1894
vn 0.9898 0.0336 -0.1386
vn -0.0948 -0.8185 0.5666
vn -0.0949 -0.8184 0.5667
vn 0.2009 0.7901 0.5791
vn -0.4473 0.6947 0.5633
vn -0.0948 -0.8185 0.5667
vn -0.9828 -0.0398 0.1805
vn 0.1666 -0.8801 -0.4447
vn -0.0628 -0.9860 -0.1547
vn 0.1367 0.9374 -0.3205
vn -0.0884 0.9236 0.3729
vn 0.0811 0.9702 -0.2282
vn -0.2143 0.9575 -0.1929
vn -0.0373 0.0119 -0.9992
vn 0.7101 0.6961 0.1058
vn 0.9797 0.0463 -0.1951
vn -0.1418 -0.9679 0.2074
vn 0.1268 0.9150 0.3829
vn -0.0884 0.9237 0.3729
vn -0.0378 -0.1625 -0.9860
vn -0.1984 -0.9801 -0.0052
vn -0.2002 0.9797 -0.0103
vn -0.0742 0.2095 -0.9750
vn 0.0241 0.0960 0.9951
vn -0.0137 -0.0904 0.9958
vn 0.0241 0.0961 0.9951
vn 0.0089 -0.9987 0.0510
vn 0.3577 0.9338 0.0080
vn 0.0240 0.0961 0.9951
vn -0.1985 -0.9801 0.0075
vn 0.0782 -0.9641 0.2539
vn 0.8308 0.1913 0.5226
vn 0.1109 0.9436 0.3121
vn -0.0743 0.2095 -0.9750
vn -0.2001 0.9797 -0.0104
vn 0.0984 0.9908 -0.0926
vn -0.0378 -0.1626 -0.9860
vn 0.0150 0.9999 -0.0006
vn 0.1137 0.9909 -0.0720
vn -0.0012 1.0000 -0.0000
vn 0.5684 0.8215 0.0449
vn 0.0782 -0.9640 0.2540
vn 0.1108 0.9436 0.3121
vn -0.0989 0.2590 0.9608
vn -0.0121 -0.0489 0.9987
vn -0.8183 0.5745 -0.0180
vn -0.5935 0.8027 0.0580
vn -0.5977 -0.0787 0.7979
vn -0.2508 0.8747 0.4148
vn -0.3854 -0.9203 0.0669
vn -0.8183 0.5746 -0.0181
vn -0.6697 -0.1911 -0.7176
vn -0.1091 0.9162 -0.3857
vn -0.0953 0.1946 -0.9762
vn -0.7215 -0.6895 -0.0633
vn -0.0193 -0.9997 -0.0165
vn -0.0194 -0.9997 -0.0164
vn 0.9492 0.3142 -0.0197
vn 0.5685 0.8215 0.0450
vn 0.9935 0.1134 0.0112
vn 0.9935 0.1134 0.0113
vn 0.3815 -0.9214 0.0745
vn 0.9935 0.1135 0.0113
vn 0.6486 -0.0953 -0.7551
vn 0.0540 -0.9293 -0.3653
vn 0.0422 0.4836 -0.8743
vn -0.0953 0.1947 -0.9762
vn 0.0204 -0.0981 -0.9950
vn 0.0538 -0.9293 -0.3653
vn -0.3171 -0.9483 0.0100
vn -0.0645 -0.1656 0.9841
vn -0.0287 0.1316 0.9909
vn -0.1092 0.9162 -0.3857
vn 0.7861 0.6173 -0.0304
vn -0.9108 0.4108 -0.0409
vn -0.9108 0.4107 -0.0408
vn -0.6898 0.6292 0.3582
vn 0.0818 0.8304 0.5511
vn -0.0287 0.1315 0.9909
vn -0.0646 -0.1655 0.9841
vn 0.0819 0.8303 0.5512
vn -0.0288 0.1316 0.9909
vn -0.0380 -0.0830 -0.9958
vn 0.0045 -0.9961 0.0884
vn -0.0646 -0.1656 0.9841
vn -0.0835 -0.9965 -0.0073
vn 0.0046 -0.9961 0.0884
vn -0.9108 0.4108 -0.0408
vn 0.1435 0.9868 0.0745
vn 0.1435 0.9869 -0.0745
vn 0.1434 0.9868 -0.0745
vn 0.1434 0.9869 0.0745
vn -0.1437 0.9868 0.0745
vn -0.0009 1.0000 -0.0001
vn -0.0010 1.0000 -0.0001
vn -0.0011 1.0000 -0.0001
vt 0.558033 0.869816
vt 0.568694 0.876823
vt 0.555350 0.880796
vt 0.908708 0.336641
vt 0.873049 0.337190
vt 0.913644 0.326988
vt 0.487468 0.840093
vt 0.493042 0.826952
vt 0.500780 0.838731
vt 0.516744 0.838616
vt 0.503258 0.838726
vt 0.510130 0.827357
vt 0.874140 0.253755
vt 0.911487 0.263335
vt 0.866270 0.264674
vt 0.866724 0.330179
vt 0.868541 0.345502
vt 0.910383 0.345600
vt 0.904107 0.365569
vt 0.910451 0.417931
vt 0.868697 0.418177
vt 0.550043 0.876014
vt 0.541839 0.862530
vt 0.552541 0.836043
vt 0.539981 0.835275
vt 0.843742 0.839929
vt 0.799114 0.836294
vt 0.831835 0.830338
vt 0.519873 0.901540
vt 0.519726 0.841790
vt 0.523558 0.895832
vt 0.851999 0.830631
vt 0.862332 0.839206
vt 0.852836 0.839500
vt 0.799701 0.906308
vt 0.836919 0.915160
vt 0.804347 0.914116
vt 0.863962 0.852187
vt 0.850807 0.854282
vt 0.746489 0.837946
vt 0.781531 0.832317
vt 0.790487 0.843722
vt 0.844463 0.903143
vt 0.538893 0.822779
vt 0.541672 0.432805
vt 0.734375 0.828911
vt 0.736963 0.437215
vt 0.732310 0.429143
vt 0.760143 0.399369
vt 0.797385 0.397507
vt 0.797424 0.403298
vt 0.797293 0.006734
vt 0.760418 0.008709
vt 0.200227 0.867002
vt 0.001800 0.867370
vt 0.004486 0.472741
vt 0.195254 0.873444
vt 0.485257 0.647929
vt 0.487169 0.547370
vt 0.522449 0.643064
vt 0.522724 0.610840
vt 0.976557 0.694979
vt 0.939503 0.700372
vt 0.939864 0.690654
vt 0.000221 0.484585
vt 0.522367 0.817470
vt 0.485332 0.817167
vt 0.522388 0.651423
vt 0.941895 0.124986
vt 0.961005 0.120718
vt 0.963991 0.138040
vt 0.796014 0.428815
vt 0.911835 0.433305
vt 0.759466 0.436738
vt 0.961525 0.021475
vt 0.964390 0.006732
vt 0.216955 0.482953
vt 0.230431 0.473233
vt 0.365252 0.472518
vt 0.390746 0.486092
vt 0.384577 0.498996
vt 0.381312 0.478840
vt 0.216807 0.502169
vt 0.925939 0.439878
vt 0.930397 0.456726
vt 0.911808 0.466711
vt 0.834467 0.363182
vt 0.836097 0.312954
vt 0.857743 0.343431
vt 0.855549 0.079636
vt 0.858218 0.032698
vt 0.833934 0.068813
vt 0.830230 0.032395
vt 0.833006 0.019740
vt 0.859919 0.376989
vt 0.205309 0.516208
vt 0.858163 0.006400
vt 0.767802 0.789762
vt 0.770072 0.486314
vt 0.920073 0.806008
vt 0.744526 0.462506
vt 0.968129 0.514390
vt 0.944449 0.492441
vt 0.964802 0.487794
vt 0.739268 0.740727
vt 0.740517 0.504553
vt 0.746374 0.799843
vt 0.957444 0.428679
vt 0.381344 0.845197
vt 0.400761 0.809220
vt 0.393448 0.847695
vt 0.395874 0.500138
vt 0.924717 0.819904
vt 0.887922 0.829211
vt 0.772065 0.824828
vt 0.964488 0.666998
vt 0.964625 0.563681
vt 0.967685 0.546030
vt 0.383142 0.863009
vt 0.372908 0.868545
vt 0.211149 0.853475
vt 0.220798 0.838100
vt 0.220744 0.863632
vt 0.942395 0.534788
vt 0.942404 0.519797
vt 0.966715 0.532177
vt 0.753024 0.818526
vt 0.023024 0.449498
vt 0.002572 0.009229
vt 0.023024 0.020820
vt 0.245639 0.449498
vt 0.266370 0.460057
vt 0.263499 0.003582
vt 0.245640 0.020820
vt 0.402033 0.931253
vt 0.402388 0.482286
vt 0.442894 0.932803
vt 0.558069 0.839006
vt 0.569259 0.835609
vt 0.534965 0.462596
vt 0.271036 0.462548
vt 0.277445 0.000999
vt 0.535000 0.007823
vt 0.484484 0.704566
vt 0.445107 0.901765
vt 0.443944 0.703697
vt 0.466209 0.904514
vt 0.459852 0.874223
vt 0.268369 0.016637
vt 0.902702 0.012623
vt 0.903245 0.023316
vt 0.862493 0.018213
vt 0.443159 0.471566
vt 0.484624 0.471850
vt 0.484402 0.692515
vt 0.443963 0.692695
vt 0.278129 0.469801
vt 0.903622 0.024637
vt 0.935970 0.246964
vt 0.903622 0.246964
vt 0.935970 0.049275
vt 0.932635 0.272249
vt 0.922405 0.316626
vt 0.920698 0.257621
vt 0.830163 0.000000
vt 0.797815 0.428632
vt 0.797815 0.000000
vt 0.830163 0.428632
vt 0.967652 -0.000000
vt 1.000000 -0.000000
vt 1.000000 0.197690
vt 0.786583 0.911932
vt 0.745792 0.910940
vt 0.491976 0.893140
vt 0.500427 0.902214
vt 0.486267 0.900342
vt 0.878042 0.424962
vt 0.900436 0.425881
vt 0.907283 0.253820
vt 0.503346 0.898149
vt 0.517432 0.900546
vt 0.507000 0.904172
vt 0.538049 0.879457
vt 0.533783 0.901378
vt 0.533059 0.837948
vt 0.523896 0.827187
vt 0.761232 0.830044
vt 0.863662 0.911592
vt 0.852441 0.914265
vt 0.797404 0.000351
vt 0.760153 0.000422
vt 0.976446 0.704636
vt 0.939552 0.869719
vt 0.976479 0.869152
vt 0.194719 0.470761
vt 0.199947 0.476589
vt 0.963773 0.159747
vt 0.940012 0.157047
vt 0.938843 0.145257
vt 0.544230 0.831918
vt 0.007132 0.873577
vt 0.381802 0.796211
vt 0.308232 0.657070
vt 0.941387 0.012887
vt 0.962525 0.000227
vt 0.939155 0.000566
vt 0.202548 0.751102
vt 0.857868 0.389736
vt 0.833067 0.386773
vt 0.202007 0.612872
vt 0.939084 0.575317
vt 0.935226 0.775085
vt 0.967593 0.679283
vt 0.942739 0.678962
vt 0.945171 0.666340
vt 0.930461 0.811244
vt 0.400182 0.539641
vt 0.948073 0.246584
vt 0.939492 0.185810
vt 0.962781 0.186089
vt 0.939747 0.169755
vt 0.945145 0.554932
vt 0.247580 0.870983
vt 0.442894 0.940212
vt 0.401958 0.940078
vt 0.834787 0.003838
vt 0.001647 0.457899
vt 0.903095 0.249095
vt 0.862572 0.028866
vt 0.862584 0.250045
vt 0.008793 0.000567
vt 0.401989 0.470813
vt 0.442852 0.477495
vt 0.527861 0.000517
vt 0.270785 0.008153
vt 0.259182 0.469802
vt 0.008951 0.469763
vt 0.528566 0.469749
vt 0.949157 0.399285
vt 0.537326 -0.000000
vt 0.759942 0.428678
vt 0.537326 0.428678
vt 0.759942 -0.000000
vt 0.967652 0.197690
s 0
f 1/1/1 3/2/2 4/3/3
f 8/4/4 1/5/5 13/6/6
f 2/7/7 11/8/8 5/9/9
f 6/10/10 7/11/11 10/12/12
f 11/13/13 7/14/11 5/15/14
f 4/16/15 7/14/16 13/6/6
f 3/17/17 12/18/18 14/19/19
f 14/19/20 12/18/18 6/20/21
f 2/21/7 14/19/20 6/20/10
f 15/22/22 20/23/23 18/24/24
f 20/23/25 17/25/26 18/24/27
f 19/26/28 17/27/26 20/28/29
f 17/29/30 22/30/31 21/31/32
f 23/32/33 24/33/34 25/34/35
f 22/35/31 24/36/34 23/37/33
f 24/33/34 27/38/36 25/34/37
f 25/34/35 27/38/38 26/39/39
f 16/40/40 25/41/35 26/42/41
f 22/35/42 19/26/43 27/43/36
f 36/44/44 30/45/45 40/46/46
f 40/46/46 30/45/45 31/47/47
f 31/47/48 30/45/49 34/48/50
f 30/49/45 28/50/51 35/51/52
f 30/49/53 37/52/54 28/50/51
f 36/53/44 37/52/54 30/49/55
f 37/54/54 33/55/56 32/56/57
f 33/55/56 37/54/54 29/57/58
f 40/58/46 31/59/59 33/60/60
f 31/59/61 38/61/62 33/60/60
f 31/62/63 32/63/57 38/64/64
f 33/55/65 38/65/66 32/56/57
f 29/66/67 39/67/68 40/58/69
f 40/58/46 41/68/70 29/66/67
f 40/58/46 33/60/65 41/68/71
f 58/69/72 57/70/73 44/71/74
f 57/72/73 60/73/75 44/74/74
f 58/69/76 47/75/77 57/70/73
f 57/70/78 47/75/77 60/76/79
f 52/77/80 59/78/81 58/79/82
f 43/80/83 46/81/84 56/82/85
f 54/83/86 52/77/87 56/82/88
f 60/73/89 62/84/90 51/85/91
f 44/74/92 60/73/79 69/86/93
f 63/87/94 64/88/95 65/89/96
f 64/88/97 66/90/98 65/89/99
f 66/90/98 67/91/100 65/89/101
f 68/92/102 67/91/100 66/90/98
f 68/92/103 45/93/104 53/94/105
f 63/87/94 65/89/106 51/95/91
f 54/83/107 63/96/108 52/77/109
f 67/91/100 53/94/110 77/97/111
f 48/98/112 70/99/113 42/100/114
f 70/99/113 69/86/115 42/100/116
f 48/98/117 61/101/118 70/99/119
f 70/99/113 61/101/120 44/74/121
f 69/86/115 51/85/122 42/100/114
f 76/102/123 49/103/124 72/104/125
f 72/105/125 74/106/126 76/107/127
f 49/103/124 74/108/128 72/104/129
f 76/107/127 74/106/128 61/101/118
f 55/109/130 49/110/131 71/111/132
f 75/112/133 46/81/84 43/80/83
f 76/107/127 61/101/118 48/98/134
f 77/113/135 78/114/136 42/100/114
f 78/114/137 81/115/138 42/100/114
f 78/116/137 80/117/139 81/118/140
f 55/109/141 82/119/142 50/120/143
f 53/121/144 45/122/145 83/123/146
f 83/123/147 45/122/145 55/109/148
f 55/109/141 71/111/149 82/119/150
f 82/124/151 71/125/152 84/126/153
f 84/126/153 71/125/149 76/102/127
f 81/115/154 84/127/153 76/107/127
f 42/100/114 81/115/138 48/98/117
f 91/128/155 96/129/156 108/130/157
f 90/131/158 99/132/159 91/128/160
f 96/129/161 87/133/162 92/134/163
f 96/135/161 89/136/164 86/137/165
f 3/2/166 1/1/167 8/138/4 12/139/168
f 98/140/169 85/141/170 107/142/171
f 107/142/171 86/143/172 98/140/169
f 99/144/159 88/145/173 85/146/170
f 101/147/174 88/145/173 99/148/159
f 87/133/175 101/149/176 99/132/177
f 101/150/174 87/151/178 88/152/173
f 103/153/179 102/154/180 106/155/181
f 106/155/181 105/156/182 103/153/179
f 106/155/183 99/144/184 85/146/185
f 106/155/186 85/146/187 105/156/182
f 105/157/188 85/141/170 98/140/189
f 93/158/190 92/159/191 100/160/192
f 93/158/193 108/161/157 92/159/194
f 93/162/193 91/163/160 108/164/157
f 104/165/195 92/166/196 90/167/197
f 100/168/192 92/166/198 104/165/195
f 104/169/195 90/170/199 91/171/160
f 15/172/200 18/173/201 16/40/202 26/42/203
f 9/174/204 2/7/205 5/9/206
f 4/175/207 3/176/17 9/174/204
f 3/176/17 2/7/7 9/174/204
f 4/175/15 9/174/204 5/9/9
f 11/177/208 2/21/209 6/20/210
f 11/177/208 6/20/10 10/178/12
f 7/14/211 11/13/212 10/179/12
f 7/11/11 6/10/10 13/180/213
f 13/180/214 6/10/215 12/181/216
f 13/180/217 12/181/216 8/182/218
f 5/15/219 7/14/16 4/16/220
f 1/5/167 4/16/15 13/6/217
f 3/17/17 14/19/20 2/21/221
f 15/22/200 19/183/222 20/23/23
f 18/184/201 21/31/32 16/185/202
f 21/31/32 22/30/223 16/185/202
f 18/184/201 17/29/224 21/31/225
f 16/185/40 22/30/223 23/186/33
f 22/35/31 27/43/36 24/36/226
f 16/40/202 23/187/227 25/41/35
f 26/39/41 19/188/28 15/189/228
f 26/39/39 27/38/229 19/188/230
f 29/190/231 37/52/232 36/53/233 39/191/234
f 17/27/26 19/26/230 22/35/31
f 32/63/57 34/192/235 35/193/236
f 34/192/237 30/194/45 35/193/236
f 32/63/238 31/62/239 34/192/240
f 32/56/238 35/195/236 28/196/51
f 37/54/232 32/56/57 28/196/241
f 44/71/242 61/197/120 43/198/243 56/199/244
f 39/200/245 36/44/246 40/46/247
f 29/57/248 41/201/70 33/55/56
f 45/122/145 110/202/249 55/109/250
f 45/122/145 54/83/86 109/203/251
f 55/109/130 110/202/249 46/81/84 75/112/252
f 44/71/253 56/199/254 58/69/82
f 58/79/76 56/82/254 52/77/87
f 58/69/72 59/204/255 47/75/77
f 47/75/256 59/204/255 60/76/75
f 60/76/89 59/204/255 62/205/90
f 59/204/255 52/206/109 62/205/90
f 45/122/145 68/207/257 63/96/258 54/83/86
f 46/81/84 54/83/86 56/82/85
f 62/208/259 52/209/260 51/95/261
f 69/86/93 60/73/79 51/85/122
f 64/210/97 63/96/94 68/207/103
f 51/85/91 65/211/101 67/212/100
f 64/88/95 68/92/262 66/90/98
f 67/91/100 68/92/102 53/94/105
f 52/209/260 63/87/258 51/95/261
f 78/116/136 77/213/263 83/214/264 79/215/265
f 67/212/266 77/216/263 42/100/267
f 42/100/268 51/85/122 67/212/266
f 69/86/115 70/99/113 44/74/121
f 76/102/127 71/125/149 49/103/131
f 49/110/269 75/112/270 73/217/271
f 49/218/131 73/219/272 74/220/128
f 74/220/128 75/221/133 61/197/273
f 74/220/128 73/219/274 75/221/252
f 49/110/269 55/109/130 75/112/252
f 75/221/252 43/198/83 61/197/120
f 82/124/151 84/126/275 81/118/276 50/222/277
f 79/223/278 83/123/264 50/120/277
f 78/116/136 50/222/277 80/117/139
f 79/215/278 50/222/143 78/116/137
f 83/123/147 55/109/141 50/120/143
f 80/117/279 50/222/143 81/118/280
f 86/137/281 94/224/282 95/225/283 96/135/156
f 77/97/135 53/94/144 83/226/284
f 48/98/117 81/115/138 76/107/123
f 99/132/285 89/227/286 91/128/160
f 91/128/155 89/227/287 96/129/161
f 96/129/161 92/134/163 108/130/157
f 99/132/159 92/134/163 87/133/162
f 99/132/285 90/131/288 92/134/198
f 87/151/289 95/228/283 107/229/171
f 107/229/171 95/228/290 94/230/291
f 88/152/173 87/151/292 107/229/171
f 87/133/162 96/129/161 95/231/293
f 102/232/180 103/153/294 98/233/169 89/136/287
f 107/142/295 94/234/296 86/143/172
f 86/137/281 89/136/164 98/233/297
f 85/141/170 88/235/173 107/142/298
f 99/132/285 106/236/186 102/237/180 89/227/299
f 98/140/169 103/238/179 105/157/182
f 97/239/300 91/163/160 93/162/301
f 93/240/302 104/241/195 97/242/300
f 93/240/302 100/243/192 104/241/195
f 97/244/303 104/169/304 91/171/160
f 45/122/145 109/203/305 110/202/249
f 110/202/249 109/203/306 46/81/84
f 109/203/307 54/83/86 46/81/84
